<svg xmlns="http://www.w3.org/2000/svg" viewBox="0 0 688.19 208.87"><defs><style>.cls-1{fill:#fff;}</style></defs><title>Asset 3</title><g id="Layer_2" data-name="Layer 2"><g id="Layer_1-2" data-name="Layer 1"><path class="cls-1" d="M83.27,81.45A34.16,34.16,0,0,1,79,98.1c-2.57,4.63-7,8.8-12.83,12.08a34.73,34.73,0,0,1-17.26,4.45H11.15v22.44a29.81,29.81,0,0,0,3.7,14.41H0a29.79,29.79,0,0,0,3.7-14.41V62.6A29.64,29.64,0,0,0,0,48.27H48.95A34.7,34.7,0,0,1,66.2,52.73C72,56,76.46,60.18,79,64.8A34.13,34.13,0,0,1,83.27,81.45Zm-7.38,0v-.08c0-.2,0-.4,0-.6v-.29a33.4,33.4,0,0,0-3.79-15A28.58,28.58,0,0,0,60.7,54a32.4,32.4,0,0,0-10.57-3.63c-1-.2-2-.38-3.08-.5v0l-.31,0-.51-.06-.35,0c-.54-.06-1.07-.11-1.67-.13h-33V74h0V93.79l0,1.38v18H42.74a44.55,44.55,0,0,0,7.32-.59,32.52,32.52,0,0,0,10.63-3.65A28.53,28.53,0,0,0,72.07,97.45a33.38,33.38,0,0,0,3.79-15v-.28c0-.2,0-.39,0-.65v0Z"/><path class="cls-1" d="M160.69,151.47a10.84,10.84,0,0,0,.83-10.13l-7.83-18.24H94.55l-.37.82-7.75,17.31a10.56,10.56,0,0,0,.89,10.24H78.83A51,51,0,0,0,85.07,141l43.05-96.66h.69l34.79,82.68,6.16,14.63a55.71,55.71,0,0,0,5.31,9.78Zm-7.93-29.9-.78-1.91L126.22,57,125,54l-1.3,3L96.37,119.63l-.84,1.94Z"/><path class="cls-1" d="M263,48.27a28,28,0,0,0-3.37,13.35v51.06c0,15.6-6,28.3-15.94,34-5.67,3.22-13.06,4.85-22,4.85h-1.23c-9-.15-16.39-2-22.58-5.57a31.84,31.84,0,0,1-13.85-15.81c-2.05-5.17-2.22-10.63-2.22-15.34V62.15a28,28,0,0,0-3.67-13.89H193a28,28,0,0,0-3.67,13.89V74h-.06v1.39c0,8,.06,22.37.06,25.91v14.36a43.37,43.37,0,0,0,.87,10.61,29.2,29.2,0,0,0,13.69,18.24c5.57,3.29,12.33,5,20.12,5,1.23,0,2.5,0,3.78-.13,9.06-.58,16.08-3.32,20.85-8.14s8.11-12.11,9.12-20.27a83.13,83.13,0,0,0,.4-10.74c0-.78,0-1.56,0-2.33V61.59a28.06,28.06,0,0,0-3.35-13.32Z"/><path class="cls-1" d="M443.49,208.65q-2.25.22-4.69.22c-14.5,0-27.7-2.26-39.26-6.7A140.25,140.25,0,0,1,368,184.94l-1.11-.8-1.26.52c-11.41,4.76-24.45,7.16-38.76,7.16-19.62,0-36.66-4.3-50.63-12.78a81.91,81.91,0,0,1-31.58-34.47c-7.06-14.46-10.63-30.75-10.63-48.38,0-17.8,3.58-34.18,10.63-48.66a82.58,82.58,0,0,1,31.58-34.6c14-8.58,31-12.93,50.62-12.93s36.63,4.35,50.6,12.93a82.5,82.5,0,0,1,31.58,34.6C416.12,62,419.7,78.39,419.7,96.19a106.63,106.63,0,0,1-10.89,48.09,84,84,0,0,1-29.21,32.88l-3,2,2.94,2.05.66.45a211.66,211.66,0,0,0,30.84,18.88A76.5,76.5,0,0,0,443.49,208.65Zm-69.6-34.24a79.41,79.41,0,0,0,23.52-31.13c6-14.11,9.12-29.95,9.12-47.08,0-17.3-3.07-33.24-9.12-47.35a79.9,79.9,0,0,0-27.15-34.22c-12-8.51-26.55-12.83-43.38-12.83s-31.41,4.32-43.39,12.83a79.6,79.6,0,0,0-27.12,34.22c-6.06,14.12-9.13,30-9.13,47.35,0,17.12,3.07,33,9.12,47.08.83,1.94,1.78,3.71,2.71,5.44l.63,1.17.81,1.52-.11.11,1,1.66a76.9,76.9,0,0,0,22.14,24.2c12,8.42,26.58,12.69,43.39,12.69,12.35,0,23.57-2.33,33.36-6.91l3.52-1.65-3-2.46c-5.83-4.76-14.31-11.92-20.64-17.8-7.24-6.65-12.86-11.59-17.15-15.1a73.28,73.28,0,0,0-14.27-9.25,28.94,28.94,0,0,0-14.12-3.24,30.46,30.46,0,0,0-5,.44,49,49,0,0,1,11.06-1.19,42,42,0,0,1,17.21,4.2,113.12,113.12,0,0,1,18.47,10.75c6.08,4.33,14,10.34,23.4,17.85,1.49,1.22,6.41,5.07,11.08,8.72l1.53,1.19Z"/><path class="cls-1" d="M399,48.27a28.06,28.06,0,0,0-3.35,13.32v46.28c0,.77,0,1.55,0,2.33a83.13,83.13,0,0,0,.4,10.74c1,8.16,4.26,15.36,9.12,20.27s11.79,7.56,20.85,8.14c1.28.08,2.55.13,3.78.13,7.78,0,14.55-1.67,20.12-5a29.2,29.2,0,0,0,13.69-18.24,43.37,43.37,0,0,0,.87-10.61V101.3c0-3.54,0-17.9.06-25.91V74h-.06V62.15a28,28,0,0,0-3.67-13.89h14.79a28,28,0,0,0-3.67,13.89v52.62c0,4.71-.17,10.17-2.22,15.34a31.84,31.84,0,0,1-13.85,15.81c-6.19,3.6-13.57,5.42-22.58,5.57H432c-8.91,0-16.31-1.63-22-4.85-10-5.68-15.94-18.38-15.94-34V61.62a28,28,0,0,0-3.37-13.35Z"/><path class="cls-1" d="M542.89,149.94h14.88a23.54,23.54,0,0,0,11.84-3.19l-.57,4.72H490.17a22.94,22.94,0,0,0,3.62-12.36V60.61a22.91,22.91,0,0,0-3.62-12.35H569l.57,4.72a23.59,23.59,0,0,0-11.84-3.19H501.25V88.52h28.86a20.64,20.64,0,0,0,11.11-3.26v8.06h0a20.61,20.61,0,0,0-11.12-3.26H501.25v59.88h41.64Z"/><path class="cls-1" d="M688.19,149.37c-22.25,18.44-36.17-12.1-51.6-26.47-5.74-5.34-14.79-8.05-20.83-8.05H594.9v22.48a29.62,29.62,0,0,0,3.7,14.36H583.76a29.64,29.64,0,0,0,3.7-14.36V62.8a29.65,29.65,0,0,0-3.68-14.33h48.92A34.67,34.67,0,0,1,650,52.94c5.83,3.27,10.26,7.45,12.82,12.08a34.78,34.78,0,0,1,0,33.3c-2.57,4.63-7,8.8-12.83,12.08a34.38,34.38,0,0,1-11.92,4l-2.89.42h-.87C654.08,118.7,667.23,161.94,688.19,149.37Zm-54.37-36.6a32.57,32.57,0,0,0,10.63-3.65,28.57,28.57,0,0,0,11.37-11.46,33.42,33.42,0,0,0,3.79-15v-.29c0-.2,0-.4,0-.56v-.2c0-.2,0-.4,0-.6V80.7a33.49,33.49,0,0,0-3.8-15A28.58,28.58,0,0,0,644.45,54.2a32.6,32.6,0,0,0-10.57-3.63c-1-.2-2-.38-3.08-.5v0l-.31,0L630,50l-.37,0c-.53-.06-1.06-.1-1.64-.13h-33V74.21h0V94l0,1.38v18h31.59A44.66,44.66,0,0,0,633.82,112.77Z"/></g></g></svg>